<svg xmlns='http://www.w3.org/2000/svg' width='256px' height='256px' viewBox='0 0 24 24' version='1.1' fill="none">
    <g transform="translate(12,0)">
        <mask id="mask">
            <rect width="24" height="24" fill="#000" />
            <path fill="#fff" d="M-9,3 C-4,3 0,0 0,0 C0,0 4,3 9,3 V10.0 C9,18 0,24 0,24 C0,24 -9,18 -9,10 z" />
        </mask>
        <rect x="-12" width="24" height="24" fill="#1f88e5" />
        <rect x="-12" width="24" height="24" fill="#000" opacity=".5" />
        <path fill="#fff" opacity=".5" d="M-9,3 C-4,3 0,0 0,0 C0,0 4,3 9,3 V10.0 C9,18 0,24 0,24 C0,24 -9,18 -9,10 z" />
        <path stroke="#fff" stroke-width="2.5" d="M-4.5,10.5 L-1.5,13.5 L4.5,7.5" />
        <path fill="#000" opacity=".25" d="M0,0 C0,0 4,3 9,3 V10.0 C9,18 0,24 0,24 z" />
        <path stroke="#fff" stroke-width="2" mask="url(#mask)"
            d="M-9,3 C-4,3 0,0 0,0 C0,0 4,3 9,3 V10.0 C9,18 0,24 0,24 C0,24 -9,18 -9,10 z" />
    </g>
</svg>
